PathFileType	4	(X/Y/Z)	Patient4_TMGait_0pt5_02_right_08.trc.trc
DataRate	CameraRate	NumFrames	NumMarkers	Units	OrigDataRate	OrigDataStartFrame	OrigNumFrames
77.348066298343	77.348066298343	4	33	mm	77.348066298343	124	       141
Frame#	Time	Sacral			L.Shoulder			Chest			R.Shoulder			Neck			R.ASIS			L.ASIS			R.Thigh.Superior			R.Thigh.Lateral			R.Thigh.Inferior			R.Patella			L.Thigh.Superior			L.Thigh.Lateral			L.Thigh.Inferior			L.Patella			L.Shank.Superior			L.Shank.Lateral			L.Shank.Inferior			R.Shank.Superior			R.Shank.Lateral			R.Shank.Inferior			R.Heel			R.Midfoot.Superior			R.Midfoot.Lateral			R.Toe			L.Heel			L.Midfoot.Lateral			L.Midfoot.Superior			L.Toe			L.Elbow			L.Wrist			R.Elbow			R.Wrist			
		X1	Y1	Z1	X2	Y2	Z2	X3	Y3	Z3	X4	Y4	Z4	X5	Y5	Z5	X6	Y6	Z6	X7	Y7	Z7	X8	Y8	Z8	X9	Y9	Z9	X10	Y10	Z10	X11	Y11	Z11	X12	Y12	Z12	X13	Y13	Z13	X14	Y14	Z14	X15	Y15	Z15	X16	Y16	Z16	X17	Y17	Z17	X18	Y18	Z18	X19	Y19	Z19	X20	Y20	Z20	X21	Y21	Z21	X22	Y22	Z22	X23	Y23	Z23	X24	Y24	Z24	X25	Y25	Z25	X26	Y26	Z26	X27	Y27	Z27	X28	Y28	Z28	X29	Y29	Z29	X30	Y30	Z30	X31	Y31	Z31	X32	Y32	Z32	X33	Y33	Z33	

124	12.050214285714	595.678458228814	996.036846292178	449.013219937445	776.197579809562	1432.392968095702	290.075980583830	863.386240131154	1361.976227475228	459.377666188826	761.552886734103	1431.619208217567	626.611204717794	756.894883831221	1489.627687549887	441.485525976883	813.154082261556	936.183357970682	584.084465754420	820.874467586116	956.893236695951	309.611991362787	883.693632006494	752.963432291224	556.506216293520	824.054094739179	631.553233634254	616.406522572307	913.654697559746	593.796599571827	538.853613271059	937.959760443550	510.403356416607	547.337484482658	826.651105214725	727.817115969446	339.640919592326	715.084676196188	631.633066225485	273.073969707470	770.418677581524	540.028160127605	343.138831222595	754.317718212258	471.975373774558	354.202685436021	721.610279963582	405.491076553732	344.369222312544	622.743019328577	301.479092262168	289.199022720408	653.169905696558	187.262387971293	366.111984355521	923.960377617725	420.688009812834	554.179383412805	870.388951324969	304.541737651946	610.701926872508	939.256645058472	221.267867289619	555.832619337354	842.770433762471	41.116273962368	517.674707904044	1005.258463748620	109.226328932393	564.253307134459	923.389008758450	38.133427275402	595.464070104965	1127.345103523103	67.312250641443	595.866504333698	509.401666016950	38.296368320143	404.069305354805	584.816518152622	34.860617541621	325.019702151953	667.963783896318	95.120657372859	353.774106480926	796.259800479055	43.401220897162	327.047805530810	839.749740162426	1101.181088275401	138.630585486014	1090.994490561970	1047.838076154984	164.969520545988	603.741643976923	1124.054588821794	720.686307336467	554.328047949002	868.021589995470	731.496305760260	
125	12.063142857143	598.354762976812	994.804640470637	450.969332900600	776.909718970224	1431.525629481039	292.096076843441	864.381893662818	1361.668642216713	461.518163683641	761.820491584807	1430.715073407515	628.483716306045	757.201622346179	1488.758859582850	443.466394047082	816.119413951154	935.165121140987	586.007983268531	823.728327611211	956.079117994745	311.757569910740	886.615035548901	751.174292204947	557.494964275827	825.599329317741	630.100686998393	616.630448362677	914.994603773067	592.202485931826	539.051201835948	937.647384173687	508.037332939605	546.841242322389	827.776619251898	726.408116860226	340.844111576843	714.904940493804	631.178117632594	274.500326800846	769.655157709257	538.899089667562	344.170541030289	753.173270523177	470.500133834806	355.035764493951	719.307695663940	404.613277096359	345.205565221737	618.915850635606	302.021986587056	289.836776755214	648.049371756056	187.087150449348	366.175794152093	923.135175520278	418.078003131346	553.753918942290	868.373511603118	302.556208153091	610.227941730840	935.585222009425	218.569738629745	554.785785714378	835.756481172138	40.953870041479	516.767944626183	999.363077111805	106.049720160196	562.497992312957	916.318961245108	37.176299286268	594.678650032610	1121.059735820785	61.977596506149	594.454372510932	502.877650090089	38.882493148278	403.817483541363	578.412056067732	35.054477095228	324.969229966589	661.785028855144	95.134968859285	353.636149337410	789.955768087827	42.769524174892	326.982243501815	841.647327063548	1100.607362027364	140.384433671116	1093.721424855042	1051.798072680728	166.181302094155	604.203157095663	1123.374426650025	722.268705622056	555.253020734165	867.119338335308	733.107007954855	
126	12.076071428571	600.884336085245	993.857575971328	453.045259010729	777.744201676519	1430.854189288538	294.220578672378	865.477570801539	1361.498588291086	463.743883797571	762.202667089788	1429.951579436689	630.452754789265	757.694396666872	1488.109234729588	445.554875535014	819.006462254523	934.412167470058	587.996014218117	826.367930184333	955.436854683153	313.956009293725	889.692099604815	749.922881668580	558.295518166252	827.686687915205	629.208055260831	616.972544252139	916.729156032225	591.145221094924	539.209750646560	937.860263844789	506.092387461767	546.525650078296	829.120063845786	725.282112805344	342.133619363742	715.185017312774	630.763604498531	276.132720152428	769.620809131772	537.895326833610	345.391110577249	752.895233541645	468.993063417461	355.998042372181	717.663228658772	403.716933717925	346.173979919369	615.565689865310	302.779914003478	290.588561402815	643.238847603165	187.053736093659	366.256370959990	922.643692411433	415.882749675219	553.494874673748	866.633800795555	301.102720293371	610.150084430011	931.834289486435	216.233747409100	553.979299779318	828.323705384561	41.015468160770	516.288163902751	993.080639421771	103.369539456899	561.037478593139	908.902845465829	36.527346280202	594.260047398370	1114.419843427252	57.260139489591	593.272690115750	496.399329879444	39.888629006390	403.509655548005	572.058272113386	35.435703043801	324.891150851766	655.768644452973	95.214160703506	353.433906796970	783.690132719982	42.084279579446	326.905324722039	843.131386557932	1099.947313486751	142.435037530194	1095.858525314929	1054.742864586034	167.446913173430	605.693851992761	1122.211684809909	723.999959745704	557.862694552713	865.595312300868	734.888750426229	
127	12.089000000000	603.235304307047	993.260401236606	455.234601953813	778.716906840882	1430.459835556846	296.442383852453	866.675035492642	1361.505251166962	466.036628173072	762.744354141225	1429.397770062416	632.524180842832	758.401227125193	1487.742043942187	447.748428127640	821.759395381271	933.978502157281	590.041469094766	828.710994477095	955.024809183180	316.174246059115	892.765108220128	749.219619135764	558.978988477856	830.133863692516	628.856579277986	617.477670604939	918.677384009867	590.582144849552	539.398846523304	938.429701899324	504.592538080291	546.456198521753	830.689884710169	724.517639446274	343.516727129038	715.999084089352	630.412371131171	277.958278856287	770.444608017506	537.061798295749	346.780195273939	753.622162237039	467.489982511034	357.039778449185	716.797759776268	402.827257312401	347.239434081391	612.799474189849	303.813899171941	291.441522470646	638.825302904087	187.222255256346	366.337488145325	922.370107503577	414.145796768140	553.441697860436	865.114425091362	300.169402189112	610.433268744612	928.095980202439	214.328050417002	553.427969418201	820.841995951483	41.215903539905	516.147464918134	986.682984439156	101.281969343514	559.908740617314	901.484320048424	36.146849647813	594.139866671815	1107.700820006043	53.402327452413	592.373500046057	490.018217812286	41.469635625398	403.152637649587	565.781328584451	36.090756301226	324.784324741707	649.981530353845	95.382513302332	353.149788402798	777.463368218803	41.356220776374	326.818187273154	844.174136560502	1099.282851743672	144.792308790875	1097.389427539150	1056.645167424589	168.784912847787	608.206207385121	1120.655877702719	725.887763623490	562.164695051858	863.553360603506	736.835369516595	
